<svg width="16" height="16" viewBox="0 0 16 16" fill="none" xmlns="http://www.w3.org/2000/svg">
<path d="M5.33333 7.33329H8.33333C9.2538 7.33329 10 6.5871 10 5.66663C10 4.74615 9.2538 3.99996 8.33333 3.99996H5.33333V7.33329ZM12 10.3333C12 11.9902 10.6569 13.3333 9 13.3333H4V2.66663H8.33333C9.9902 2.66663 11.3333 4.00977 11.3333 5.66663C11.3333 6.4695 11.0179 7.19869 10.5043 7.73716C11.3986 8.25643 12 9.22463 12 10.3333ZM5.33333 8.66663V12H9C9.92047 12 10.6667 11.2538 10.6667 10.3333C10.6667 9.41283 9.92047 8.66663 9 8.66663H5.33333Z" fill="currentColor"/>
</svg>
