<svg width="16" height="16" viewBox="0 0 16 16" fill="none" xmlns="http://www.w3.org/2000/svg">
<path d="M6.00004 0.666626V1.99996H10V0.666626H11.3334V1.99996H14C14.3682 1.99996 14.6667 2.29844 14.6667 2.66663V13.3333C14.6667 13.7015 14.3682 14 14 14H2.00004C1.63185 14 1.33337 13.7015 1.33337 13.3333V2.66663C1.33337 2.29844 1.63185 1.99996 2.00004 1.99996H4.66671V0.666626H6.00004ZM13.3334 7.33329H2.66671V12.6666H13.3334V7.33329ZM4.66671 3.33329H2.66671V5.99996H13.3334V3.33329H11.3334V4.66663H10V3.33329H6.00004V4.66663H4.66671V3.33329Z" fill="currentColor"/>
</svg>
