<svg width="16" height="16" viewBox="0 0 16 16" fill="none" xmlns="http://www.w3.org/2000/svg">
<path d="M1.33337 14.6667L4.86082 13.8828C5.79631 14.3831 6.86504 14.6667 8.00004 14.6667C11.6819 14.6667 14.6667 11.6819 14.6667 8.00004C14.6667 4.31814 11.6819 1.33337 8.00004 1.33337C4.31814 1.33337 1.33337 4.31814 1.33337 8.00004C1.33337 9.13504 1.617 10.2038 2.11725 11.1392L1.33337 14.6667ZM5.48956 12.707L5.05387 12.474L3.08948 12.9106L3.52601 10.9462L3.29303 10.5105C2.8837 9.74504 2.66671 8.88971 2.66671 8.00004C2.66671 5.05452 5.05452 2.66671 8.00004 2.66671C10.9456 2.66671 13.3334 5.05452 13.3334 8.00004C13.3334 10.9456 10.9456 13.3334 8.00004 13.3334C7.11037 13.3334 6.25503 13.1164 5.48956 12.707ZM10.2992 4.66671H8.96077L8.84411 6.0002H7.50564L7.62231 4.66671H6.28389L6.16722 6.0002H4.66671V7.33351H6.05057L5.93392 8.66684H4.66671V10.0002H5.81727L5.70063 11.3334H7.03904L7.15571 10.0002H8.49411L8.37751 11.3334H9.71591L9.83257 10.0002H11.3334V8.66684H9.94917L10.0658 7.33351H11.3334V6.0002H10.1825L10.2992 4.66671ZM7.38897 7.33351H8.72744L8.61077 8.66684H7.27237L7.38897 7.33351Z" fill="currentColor"/>
</svg>
