<svg width="16" height="16" viewBox="0 0 16 16" fill="none" xmlns="http://www.w3.org/2000/svg">
<path d="M1.99457 14C1.62941 14 1.33337 13.7034 1.33337 13.3377V2.66227C1.33337 2.29651 1.63691 2 1.99457 2H14.0055C14.3707 2 14.6667 2.29663 14.6667 2.66227V13.3377C14.6667 13.7035 14.3632 14 14.0055 14H1.99457ZM13.3334 10V3.33333H2.66671V12.6667L9.33337 6L13.3334 10ZM13.3334 11.8856L9.33337 7.8856L4.55233 12.6667H13.3334V11.8856ZM5.33337 7.33333C4.59699 7.33333 4.00004 6.7364 4.00004 6C4.00004 5.26362 4.59699 4.66667 5.33337 4.66667C6.06975 4.66667 6.66671 5.26362 6.66671 6C6.66671 6.7364 6.06975 7.33333 5.33337 7.33333Z" fill="currentColor"/>
</svg>
