<svg width="16" height="16" viewBox="0 0 16 16" fill="none" xmlns="http://www.w3.org/2000/svg">
<path d="M12 5.33329H13.3333C13.7015 5.33329 14 5.63177 14 5.99996V14C14 14.3682 13.7015 14.6666 13.3333 14.6666H2.66667C2.29848 14.6666 2 14.3682 2 14V5.99996C2 5.63177 2.29848 5.33329 2.66667 5.33329H4V4.66663C4 2.45749 5.79086 0.666626 8 0.666626C10.2091 0.666626 12 2.45749 12 4.66663V5.33329ZM3.33333 6.66663V13.3333H12.6667V6.66663H3.33333ZM7.33333 9.33329H8.66667V10.6666H7.33333V9.33329ZM4.66667 9.33329H6V10.6666H4.66667V9.33329ZM10 9.33329H11.3333V10.6666H10V9.33329ZM10.6667 5.33329V4.66663C10.6667 3.19387 9.47273 1.99996 8 1.99996C6.52724 1.99996 5.33333 3.19387 5.33333 4.66663V5.33329H10.6667Z" fill="currentColor"/>
</svg>
