<svg width="16" height="16" viewBox="0 0 16 16" fill="none" xmlns="http://www.w3.org/2000/svg">
<path d="M3.05561 11.5474C2.36877 10.8183 2 10 2 8.67353C2 6.34057 3.63767 4.24911 6.02039 3.21545L6.61552 4.13386C4.39203 5.33693 3.95745 6.89733 3.78376 7.88133C4.14175 7.6962 4.61039 7.63107 5.06981 7.67367C6.27272 7.7852 7.2208 8.77267 7.2208 10C7.2208 11.2887 6.17611 12.3333 4.88744 12.3333C4.17207 12.3333 3.48797 12.0063 3.05561 11.5474ZM9.72227 11.5474C9.03547 10.8183 8.66667 10 8.66667 8.67353C8.66667 6.34057 10.3043 4.24911 12.6871 3.21545L13.2822 4.13386C11.0587 5.33693 10.6241 6.89733 10.4504 7.88133C10.8084 7.6962 11.2771 7.63107 11.7365 7.67367C12.9394 7.7852 13.8875 8.77267 13.8875 10C13.8875 11.2887 12.8428 12.3333 11.5541 12.3333C10.8387 12.3333 10.1547 12.0063 9.72227 11.5474Z" fill="currentColor"/>
</svg>
