<svg width="16" height="16" viewBox="0 0 16 16" fill="none" xmlns="http://www.w3.org/2000/svg">
<path d="M12.0207 11.0779L14.8758 13.933L13.933 14.8758L11.0779 12.0207C10.0513 12.842 8.74937 13.3334 7.33337 13.3334C4.02137 13.3334 1.33337 10.6454 1.33337 7.33337C1.33337 4.02137 4.02137 1.33337 7.33337 1.33337C10.6454 1.33337 13.3334 4.02137 13.3334 7.33337C13.3334 8.74937 12.842 10.0513 12.0207 11.0779ZM10.6832 10.5832C11.4984 9.74311 12 8.59711 12 7.33337C12 4.75504 9.91171 2.66671 7.33337 2.66671C4.75504 2.66671 2.66671 4.75504 2.66671 7.33337C2.66671 9.91171 4.75504 12 7.33337 12C8.59711 12 9.74311 11.4984 10.5832 10.6832L10.6832 10.5832Z" fill="currentColor"/>
</svg>
