<svg width="16" height="16" viewBox="0 0 16 16" fill="none" xmlns="http://www.w3.org/2000/svg">
<path d="M2.22631 11.3335C1.93814 10.8344 1.72185 10.3135 1.57422 9.78277C2.22253 9.45197 2.66648 8.77791 2.66648 8.00017C2.66648 7.22304 2.2232 6.54937 1.57569 6.21831C1.8735 5.14438 2.43905 4.14422 3.24316 3.32671C3.8538 3.72281 4.65957 3.77027 5.33315 3.38137C6.00673 2.99248 6.36851 2.27094 6.3308 1.54407C7.44087 1.25644 8.5898 1.26673 9.66873 1.54579C9.63167 2.27208 9.9934 2.99279 10.6665 3.38137C11.3401 3.77025 12.1458 3.72281 12.7564 3.32675C13.1422 3.71995 13.4851 4.16771 13.7733 4.66685C14.0615 5.16597 14.2778 5.68687 14.4254 6.21756C13.7771 6.54835 13.3331 7.22244 13.3331 8.00017C13.3331 8.77737 13.7764 9.45097 14.4239 9.78204C14.1261 10.856 13.5606 11.8561 12.7565 12.6736C12.1458 12.2776 11.3401 12.2301 10.6665 12.619C9.99287 13.0078 9.63113 13.7294 9.6688 14.4563C8.5588 14.7439 7.40987 14.7336 6.33089 14.4546C6.36794 13.7282 6.00619 13.0076 5.33315 12.619C4.65959 12.2301 3.85386 12.2775 3.24323 12.6736C2.85745 12.2804 2.51448 11.8326 2.22631 11.3335ZM5.99981 11.4643C6.7274 11.8844 7.24993 12.5485 7.5002 13.3106C7.8324 13.3422 8.1668 13.3427 8.49907 13.3117C8.7492 12.5492 9.27187 11.8846 9.9998 11.4643C10.7277 11.044 11.5647 10.9237 12.3501 11.0883C12.5431 10.816 12.7099 10.5262 12.8486 10.2227C12.3137 9.62491 11.9998 8.84031 11.9998 8.00017C11.9998 7.16004 12.3137 6.37551 12.8486 5.77771C12.7792 5.62704 12.7025 5.47885 12.6186 5.33351C12.5347 5.18817 12.4447 5.04769 12.3489 4.91232C11.5638 5.07655 10.7274 4.95613 9.9998 4.53607C9.2722 4.11601 8.74973 3.45183 8.4994 2.68974C8.16727 2.65813 7.8328 2.65768 7.5006 2.68865C7.2504 3.45118 6.72773 4.1158 5.99981 4.53607C5.27187 4.95635 4.43497 5.07667 3.64952 4.91206C3.45657 5.18431 3.28975 5.47415 3.15104 5.77762C3.68587 6.37545 3.99981 7.16004 3.99981 8.00017C3.99981 8.84031 3.68589 9.62484 3.15104 10.2226C3.22045 10.3733 3.29709 10.5215 3.38101 10.6668C3.46493 10.8122 3.55493 10.9526 3.65075 11.088C4.43585 10.9238 5.27225 11.0442 5.99981 11.4643ZM7.9998 10.0002C6.89527 10.0002 5.99981 9.10477 5.99981 8.00017C5.99981 6.89564 6.89527 6.00018 7.9998 6.00018C9.1044 6.00018 9.9998 6.89564 9.9998 8.00017C9.9998 9.10477 9.1044 10.0002 7.9998 10.0002ZM7.9998 8.66684C8.368 8.66684 8.66647 8.36837 8.66647 8.00017C8.66647 7.63197 8.368 7.33351 7.9998 7.33351C7.6316 7.33351 7.33313 7.63197 7.33313 8.00017C7.33313 8.36837 7.6316 8.66684 7.9998 8.66684Z" fill="currentColor"/>
</svg>
